<?xml version="1.0" encoding="utf-8"?>
<!-- Generator: Adobe Illustrator 15.0.0, SVG Export Plug-In . SVG Version: 6.00 Build 0)  -->
<!DOCTYPE svg PUBLIC "-//W3C//DTD SVG 1.1//EN" "http://www.w3.org/Graphics/SVG/1.1/DTD/svg11.dtd">
<svg version="1.1" id="Layer_1" xmlns="http://www.w3.org/2000/svg" xmlns:xlink="http://www.w3.org/1999/xlink" x="0px" y="0px"
	 width="40px" height="40px" viewBox="0 0 40 40" enable-background="new 0 0 40 40" xml:space="preserve">
<g>
	<path fill="#303832" d="M20,2.5C10.335,2.5,2.5,10.336,2.5,20c0,9.666,7.835,17.5,17.5,17.5c9.664,0,17.5-7.834,17.5-17.5
		C37.5,10.336,29.664,2.5,20,2.5z M29.748,28.501c0,0.777-0.646,1.408-1.444,1.408H11.663c-0.799,0-1.444-0.631-1.444-1.408V11.666
		c0-0.779,0.646-1.41,1.444-1.41h16.641c0.799,0,1.444,0.631,1.444,1.41V28.501z"/>
	<path fill="#303832" d="M23.38,17.626c-1.566,0-2.268,0.859-2.659,1.466v0.027h-0.021c0,0,0.015-0.02,0.021-0.027v-1.258h-2.95
		c0.038,0.832,0,8.873,0,8.873h2.95v-4.955c0-0.268,0.019-0.529,0.097-0.719c0.213-0.529,0.699-1.08,1.513-1.08
		c1.069,0,1.495,0.813,1.495,2.006v4.748h2.948V21.62C26.773,18.893,25.318,17.626,23.38,17.626z"/>
	<path fill="#303832" d="M14.683,13.556c-1.008,0-1.667,0.663-1.667,1.533c0,0.852,0.64,1.535,1.629,1.535h0.02
		c1.027,0,1.669-0.683,1.669-1.535C16.313,14.219,15.692,13.556,14.683,13.556z"/>
	<rect x="13.189" y="17.834" fill="#303832" width="2.951" height="8.873"/>
</g>
</svg>
