<?xml version="1.0" encoding="utf-8"?>
<!-- Generator: Adobe Illustrator 15.0.0, SVG Export Plug-In . SVG Version: 6.00 Build 0)  -->
<!DOCTYPE svg PUBLIC "-//W3C//DTD SVG 1.1//EN" "http://www.w3.org/Graphics/SVG/1.1/DTD/svg11.dtd">
<svg version="1.1" id="Layer_1" xmlns="http://www.w3.org/2000/svg" xmlns:xlink="http://www.w3.org/1999/xlink" x="0px" y="0px"
	 width="260px" height="32px" viewBox="0 0 260 32" enable-background="new 0 0 260 32" xml:space="preserve">
<g>
	<g>
		<path fill="#FFFFFF" d="M4.002,2.129h6.579l7.292,11.733l7.292-11.733h6.579v27.742h-6.063V11.762l-7.808,11.847h-0.158
			L9.986,11.88v17.991H4.002V2.129z"/>
		<path fill="#FFFFFF" d="M37.169,16.081V16c0-7.886,6.222-14.346,14.782-14.346c8.56,0,14.703,6.382,14.703,14.268V16
			c0,7.889-6.222,14.346-14.782,14.346C43.312,30.348,37.169,23.968,37.169,16.081z M60.274,16.081V16
			c0-4.754-3.488-8.717-8.402-8.717c-4.913,0-8.322,3.882-8.322,8.639V16c0,4.756,3.488,8.719,8.401,8.719
			C56.866,24.721,60.274,20.835,60.274,16.081z"/>
		<path fill="#FFFFFF" d="M72.001,2.129h5.628L90.627,19.21V2.129h6.024v27.742H91.46L78.025,12.237v17.634h-6.024V2.129z"/>
		<path fill="#FFFFFF" d="M102.062,16.081V16c0-7.886,6.221-14.346,14.781-14.346c8.56,0,14.703,6.382,14.703,14.268V16
			c0,7.889-6.222,14.346-14.782,14.346C108.205,30.348,102.062,23.968,102.062,16.081z M125.167,16.081V16
			c0-4.754-3.487-8.717-8.402-8.717c-4.914,0-8.322,3.882-8.322,8.639V16c0,4.756,3.488,8.719,8.401,8.719
			C121.759,24.721,125.167,20.835,125.167,16.081z"/>
		<path fill="#FFFFFF" d="M136.895,2.129h6.578l7.293,11.733l7.291-11.733h6.579v27.742h-6.063V11.762l-7.807,11.849h-0.158
			l-7.729-11.73v17.991h-5.983V2.129L136.895,2.129z"/>
		<path fill="#FFFFFF" d="M180.499,1.932h5.628l11.889,27.939h-6.38L189.1,23.65H177.37l-2.537,6.221h-6.222L180.499,1.932z
			 M186.92,18.261l-3.686-8.996l-3.687,8.996H186.92z"/>
		<path fill="#FFFFFF" d="M201.992,2.129h12.682c3.527,0,6.262,0.991,8.086,2.816c1.545,1.544,2.377,3.726,2.377,6.339v0.081
			c0,4.479-2.418,7.292-5.945,8.599l6.777,9.907h-7.134l-5.944-8.876h-4.795v8.876h-6.104V2.129L201.992,2.129z M214.277,15.606
			c2.973,0,4.677-1.587,4.677-3.925v-0.079c0-2.616-1.823-3.963-4.795-3.963h-6.063v7.966L214.277,15.606L214.277,15.606z"/>
		<path fill="#FFFFFF" d="M230.752,2.129h6.104v12.127l11.256-12.127h7.369L244.188,13.9l11.811,15.971h-7.331l-8.601-11.809
			l-3.209,3.328v8.479h-6.104L230.752,2.129L230.752,2.129z"/>
	</g>
</g>
</svg>
