<?xml version="1.0" encoding="utf-8"?>
<!-- Generator: Adobe Illustrator 15.0.0, SVG Export Plug-In . SVG Version: 6.00 Build 0)  -->
<!DOCTYPE svg PUBLIC "-//W3C//DTD SVG 1.1//EN" "http://www.w3.org/Graphics/SVG/1.1/DTD/svg11.dtd">
<svg version="1.1" id="Layer_1" xmlns="http://www.w3.org/2000/svg" xmlns:xlink="http://www.w3.org/1999/xlink" x="0px" y="0px"
	 width="40px" height="40px" viewBox="0 0 40 40" enable-background="new 0 0 40 40" xml:space="preserve">
<g>
	<path fill="#303832" d="M26.883,18.246c-2.255,0-2.568,2.253-2.568,2.253h4.795C29.109,20.499,29.139,18.246,26.883,18.246z"/>
	<path fill="#303832" d="M16.002,20.499h-4.251V24.4h3.764c0.063,0,0.159,0.001,0.271,0c0.605-0.013,1.754-0.19,1.754-1.897
		C17.541,20.477,16.002,20.499,16.002,20.499z"/>
	<path fill="#303832" d="M20.002,2.5C10.336,2.5,2.5,10.336,2.5,19.998c0,9.666,7.836,17.502,17.502,17.502
		c9.662,0,17.498-7.836,17.498-17.502C37.5,10.336,29.664,2.5,20.002,2.5z M23.685,13.253h6.023v1.797h-6.023V13.253z M20.64,22.684
		c0,4.458-4.637,4.312-4.637,4.312h-4.251h-0.125H8.404V12.393h3.222h0.125h4.251c2.309,0,4.129,1.276,4.129,3.887
		c0,2.613-2.227,2.78-2.227,2.78C20.843,19.06,20.64,22.684,20.64,22.684z M31.907,22.444h-7.565c0,2.715,2.569,2.543,2.569,2.543
		c2.427,0,2.342-1.571,2.342-1.571h2.571c0,4.17-4.998,3.884-4.998,3.884c-5.994,0-5.61-5.582-5.61-5.582s-0.004-5.61,5.61-5.61
		C32.735,16.107,31.907,22.444,31.907,22.444z"/>
	<path fill="#303832" d="M17.034,16.506c0-1.517-1.031-1.517-1.031-1.517h-0.547h-3.704v3.256h3.987
		C16.428,18.246,17.034,18.026,17.034,16.506z"/>
</g>
</svg>
