<?xml version="1.0" encoding="utf-8"?>
<!-- Generator: Adobe Illustrator 15.0.0, SVG Export Plug-In . SVG Version: 6.00 Build 0)  -->
<!DOCTYPE svg PUBLIC "-//W3C//DTD SVG 1.1//EN" "http://www.w3.org/Graphics/SVG/1.1/DTD/svg11.dtd">
<svg version="1.1" id="Layer_1" xmlns="http://www.w3.org/2000/svg" xmlns:xlink="http://www.w3.org/1999/xlink" x="0px" y="0px"
	 width="270px" height="80px" viewBox="-5.499 -24 270 80" enable-background="new -5.499 -24 270 80" xml:space="preserve">
<g>
	<g>
		<path fill="#222222" d="M4.002,66.697h6.579l7.292,11.733l7.292-11.733h6.579v27.742h-6.063V76.331l-7.808,11.847h-0.158
			L9.986,76.449v17.99H4.002V66.697z"/>
		<path fill="#222222" d="M37.169,80.65v-0.082c0-7.885,6.222-14.346,14.782-14.346s14.703,6.383,14.703,14.268v0.078
			c0,7.889-6.222,14.346-14.782,14.346C43.312,94.916,37.169,88.537,37.169,80.65z M60.274,80.65v-0.082
			c0-4.754-3.488-8.717-8.402-8.717c-4.913,0-8.322,3.883-8.322,8.639v0.078c0,4.756,3.488,8.719,8.401,8.719
			C56.866,89.289,60.274,85.404,60.274,80.65z"/>
		<path fill="#222222" d="M72.001,66.697h5.628l12.998,17.082V66.697h6.024v27.742H91.46L78.025,76.806v17.634h-6.024V66.697z"/>
		<path fill="#222222" d="M102.062,80.65v-0.082c0-7.885,6.221-14.346,14.781-14.346c8.56,0,14.703,6.383,14.703,14.268v0.078
			c0,7.889-6.222,14.346-14.782,14.346C108.205,94.916,102.062,88.537,102.062,80.65z M125.167,80.65v-0.082
			c0-4.754-3.487-8.717-8.402-8.717c-4.914,0-8.322,3.883-8.322,8.639v0.078c0,4.756,3.488,8.719,8.401,8.719
			C121.759,89.289,125.167,85.404,125.167,80.65z"/>
		<path fill="#222222" d="M136.895,66.697h6.578l7.293,11.733l7.291-11.733h6.58v27.742h-6.063V76.331l-7.808,11.849h-0.158
			l-7.729-11.73v17.992h-5.982V66.697H136.895z"/>
		<path fill="#222222" d="M180.499,66.501h5.628l11.889,27.938h-6.38l-2.536-6.221H177.37l-2.537,6.221h-6.222L180.499,66.501z
			 M186.92,82.83l-3.686-8.996l-3.688,8.996H186.92z"/>
		<path fill="#222222" d="M201.992,66.697h12.682c3.527,0,6.262,0.992,8.086,2.816c1.545,1.545,2.377,3.727,2.377,6.34v0.08
			c0,4.479-2.418,7.293-5.945,8.6l6.777,9.906h-7.134l-5.944-8.875h-4.795v8.875h-6.104V66.697L201.992,66.697z M214.277,80.175
			c2.973,0,4.677-1.587,4.677-3.925v-0.079c0-2.616-1.823-3.963-4.795-3.963h-6.063v7.966L214.277,80.175L214.277,80.175z"/>
		<path fill="#222222" d="M230.752,66.697h6.104v12.127l11.256-12.127h7.369l-11.293,11.771l11.812,15.971h-7.331l-8.602-11.809
			l-3.209,3.328v8.479h-6.104L230.752,66.697L230.752,66.697z"/>
	</g>
</g>
<path fill="#231F20" d="M32.463,40.467c0-2.874-2.253-4.271-5.358-4.66l-0.234,0.699C23.221,47.146,16.152,50.33,11.257,50.33
	c-3.883,0-6.756-2.406-6.756-5.281c0-5.98,9.787-10.098,17.166-11.572L37.899-13.67h-0.776c-6.913,0-13.67,3.262-16.855,9.631
	c-1.241,2.485-2.097,5.28-2.097,8.389c0,4.736,3.264,8,6.292,8c1.088,0,1.631,0.467,1.631,1.164c0,0.855-1.631,2.642-5.438,2.642
	c-4.504,0-7.844-4.116-7.844-9.321c0-5.125,2.563-10.797,6.291-14.988C24.929-14.68,34.793-18.33,43.648-18.33
	c0.854,0,1.476,0.621,1.476,1.553c0,0.234-0.077,0.466-0.155,0.776L28.036,32.932c5.515,0.312,8.62,2.486,8.62,5.359
	c0,1.166-1.242,4.661-3.262,4.661c-0.543,0-1.088-0.312-1.088-1.01c0-0.079,0.078-0.156,0.078-0.312
	C32.463,41.242,32.463,40.854,32.463,40.467 M18.948,41.477l1.785-5.204c-4.97,1.165-9.553,3.96-9.553,7.456
	c0,1.554,1.32,2.641,2.562,2.641C16.074,46.369,18.171,43.807,18.948,41.477 M60.501,21.748c0.465,0,0.854,0.232,0.854,0.775
	c0,0.545-0.312,1.244-1.086,2.174c-3.885,4.506-9.399,7.613-14.604,7.613c-5.048,0-8.855-3.34-8.855-8.234
	c0-7.066,5.827-15.067,14.448-15.067c3.883,0,5.748,2.329,5.748,4.737c0,4.195-5.825,9.476-11.264,11.964
	c-0.311,0.155-0.621,0.231-0.854,0.231c-0.621,0-1.088-0.389-1.088-0.932c0-0.466,0.312-1.01,1.088-1.631
	c4.893-3.885,6.524-7.379,6.524-9.476c0-1.478-0.7-2.175-1.788-2.175c-3.339,0-7.145,5.98-7.145,11.262
	c0,3.572,2.329,5.515,5.67,5.515c3.263,0,7.38-1.863,11.028-6.138C59.49,21.98,60.034,21.748,60.501,21.748 M64.071,21.98
	c0.232,4.582,1.165,6.214,2.33,6.214c1.786,0,4.427-2.484,7.301-5.827c0.389-0.387,0.854-0.619,1.32-0.619
	c0.544,0,0.932,0.232,0.932,0.854c0,0.467-0.388,1.166-1.164,2.096c-4.66,5.516-8.079,7.613-10.719,7.613
	c-3.806,0-5.515-4.582-5.515-9.787c0-18.951,12.737-40.854,17.397-40.854c1.087,0,1.787,1.164,1.787,3.729
	C77.741-5.127,70.597,13.204,64.071,21.98 M64.071,17.709c5.437-9.787,8-24.545,8-25.789c0-1.241-0.154-1.785-0.466-1.785
	c-1.476,0-5.438,11.885-6.99,21.67C64.304,13.903,64.071,16,64.071,17.709 M78.595,21.98c0.231,4.582,1.164,6.214,2.329,6.214
	c1.786,0,4.428-2.484,7.301-5.827c0.388-0.387,0.855-0.619,1.321-0.619c0.543,0,0.933,0.232,0.933,0.854
	c0,0.467-0.39,1.166-1.166,2.096c-4.661,5.516-8.078,7.613-10.718,7.613c-3.807,0-5.516-4.582-5.516-9.787
	c0-18.951,12.738-40.854,17.399-40.854c1.087,0,1.785,1.164,1.785,3.729C92.264-5.127,85.119,13.204,78.595,21.98 M78.595,17.709
	C84.03,7.922,86.596-6.836,86.596-8.08c0-1.241-0.158-1.785-0.469-1.785c-1.476,0-5.437,11.885-6.989,21.67
	C78.826,13.903,78.595,16,78.595,17.709 M109.815,21.748c0.467,0,0.854,0.232,0.854,0.775c0,0.545-0.31,1.244-1.088,2.174
	c-3.883,4.506-9.397,7.613-14.601,7.613c-5.049,0-8.855-3.34-8.855-8.234c0-7.066,5.825-15.067,14.447-15.067
	c3.884,0,5.747,2.329,5.747,4.737c0,4.195-5.825,9.476-11.261,11.964c-0.312,0.155-0.623,0.231-0.856,0.231
	c-0.622,0-1.085-0.389-1.085-0.932c0-0.466,0.309-1.01,1.085-1.631c4.895-3.885,6.524-7.379,6.524-9.476
	c0-1.478-0.698-2.175-1.785-2.175c-3.34,0-7.146,5.98-7.146,11.262c0,3.572,2.332,5.515,5.671,5.515
	c3.261,0,7.379-1.863,11.028-6.138C108.807,21.98,109.35,21.748,109.815,21.748 M125.347,0.621c0,6.602,5.67,4.737,5.67,6.758
	c0,0.775-1.088,1.63-4.194,1.63c-4.194,0-8.078-2.873-8.078-8.388c0-11.418,12.971-18.951,25.634-18.951
	c10.717,0,17.317,5.126,17.317,12.35c0,7.067-6.911,13.902-12.893,17.396c2.33,0.545,8.467,2.564,8.467,9.166
	c0,10.408-14.915,17.243-25.089,17.243c-10.251,0-14.99-3.96-14.99-8.31c0-5.516,7.068-8.001,12.352-8.235L139.56-7.613
	c0.778-2.33,3.496-3.961,5.284-3.961c1.008,0,1.628,0.467,1.628,1.477c0,0.311,0,0.621-0.153,1.01l-10.797,31.224
	c3.106,1.166,4.271,3.417,4.271,5.204s-1.165,3.028-2.408,3.028c-1.941,0-0.31-2.485-3.185-4.349l-0.309,0.932
	c-0.779,2.408-3.651,3.961-5.362,3.961c-0.931,0-1.63-0.465-1.63-1.396c0-0.312,0.078-0.701,0.232-1.088l1.476-4.271
	c-1.785,0.154-5.048,1.475-5.048,4.582c0,3.494,3.34,5.825,11.264,5.825c10.562,0,15.767-8.233,15.767-13.749
	c0-4.97-3.652-7.301-6.291-7.301c-0.311,0-0.776,0.078-1.088,0.078c-0.932,0-1.476-0.466-1.476-1.01c0-0.465,0.389-0.932,1.243-1.32
	c4.893-2.176,11.962-9.01,11.962-17.01c0-6.603-6.292-10.02-11.342-10.02C136.221-15.768,125.347-9.787,125.347,0.621
	 M176.215,32.311c-2.329,0-3.492-1.242-3.727-3.107c-1.787,2.021-3.96,3.107-6.137,3.107c-3.571,0-6.601-3.029-6.601-7.066
	c0-7.068,7.223-16.235,16.389-16.235c3.884,0,6.911,1.554,6.911,4.661c0,3.884-3.416,4.66-4.659,4.66
	c-1.088,0-2.798-0.311-2.798-1.32c0-1.088,2.409-0.467,2.409-2.952c0-1.554-1.553-2.097-3.106-2.097
	c-5.594,0-9.631,7.767-9.631,12.583c0,2.175,0.854,4.349,2.874,4.349c1.629,0,4.271-2.33,5.591-5.746
	c0.856-2.332,3.264-3.885,4.895-3.885c0.854,0,1.398,0.389,1.398,1.242c0,0.311-0.079,0.699-0.234,1.166
	c-0.311,1.011-1.941,5.67-1.941,6.369c0,0.389,0.155,0.699,0.621,0.699c1.166,0,4.194-2.02,7.924-6.371
	c0.31-0.387,0.853-0.619,1.318-0.619c0.467,0,0.854,0.232,0.854,0.775c0,0.545-0.31,1.244-1.086,2.174
	C183.207,29.748,178.935,32.311,176.215,32.311 M200.681,32.311c-2.329,0-3.496-1.242-3.729-3.107
	c-1.785,2.021-3.96,3.107-6.135,3.107c-3.572,0-6.603-3.029-6.603-7.066c0-7.068,7.225-16.235,16.389-16.235
	c3.883,0,6.913,1.554,6.913,4.661c0,3.884-3.418,4.66-4.659,4.66c-1.089,0-2.798-0.311-2.798-1.32c0-1.088,2.409-0.467,2.409-2.952
	c0-1.554-1.554-2.097-3.106-2.097c-5.593,0-9.633,7.767-9.633,12.583c0,2.175,0.855,4.349,2.873,4.349
	c1.633,0,4.274-2.33,5.593-5.746c0.854-2.332,3.264-3.885,4.894-3.885c0.855,0,1.397,0.389,1.397,1.242
	c0,0.311-0.076,0.699-0.231,1.166c-0.311,1.011-1.942,5.67-1.942,6.369c0,0.389,0.156,0.699,0.622,0.699
	c1.164,0,4.193-2.02,7.923-6.371c0.311-0.387,0.854-0.619,1.319-0.619c0.467,0,0.854,0.232,0.854,0.775
	c0,0.545-0.311,1.244-1.088,2.174C207.671,29.748,203.399,32.311,200.681,32.311 M214.581,17.631
	c-2.174-1.396-3.105-2.951-3.105-5.359c0-4.816,4.194-8.155,7.3-8.155c2.176,0,3.419,1.632,3.419,3.495
	c0,2.175-0.855,4.193-2.177,6.215c2.099,0.543,4.584,0.466,6.291,0.543c1.166,0.078,2.02,0.854,2.02,2.252
	c0,0.545-0.231,1.164-0.698,1.555c-1.088,1.086-5.514,5.28-5.514,8.543c0,1.242,0.544,1.786,1.397,1.786
	c1.941,0,5.592-2.485,8.7-6.138c0.31-0.387,0.854-0.619,1.32-0.619s0.854,0.232,0.854,0.775c0,0.545-0.31,1.244-1.087,2.174
	c-4.815,5.671-8.699,7.613-11.496,7.613c-3.262,0-5.049-2.641-5.049-4.971c0-1.864,1.087-4.584,4.429-7.534
	c-1.556-0.155-3.107-0.544-4.506-1.088c-1.632,2.175-3.417,4.429-4.737,5.979c-0.389,0.469-0.933,0.623-1.321,0.623
	c-0.466,0-0.854-0.232-0.854-0.854c0-0.466,0.311-1.164,1.088-2.099C211.941,21.127,213.339,19.262,214.581,17.631 M217.688,12.659
	c0.545-1.009,1.01-2.329,1.01-3.65c0-1.476-0.389-2.019-0.932-2.019c-0.854,0-1.554,1.243-1.554,2.406
	C216.212,10.718,216.989,12.039,217.688,12.659 M237.182,16.155c-0.933-1.397-1.634-2.795-1.634-4.427
	c0-4.583,5.362-8.544,8.623-8.544c1.4,0,2.408,0.7,2.408,2.407c0,2.407-2.563,5.824-4.428,8.154c2.253,2.797,5.283,6.06,5.283,9.633
	c4.114,0.544,7.066,2.252,7.066,5.126c0,1.554-1.397,4.893-2.874,4.893c-0.309,0-0.544-0.153-0.544-0.542
	c0-0.545,0.466-1.012,0.466-2.021c0-1.941-1.707-3.417-4.813-4.115c-1.633,4.193-5.903,5.592-9.554,5.592
	c-1.787,0-5.516-0.776-5.516-3.184c0-2.33,3.651-4.816,10.642-5.671c-0.699-1.864-2.253-3.495-3.65-5.28l-5.36,6.521
	c-0.311,0.391-0.854,0.623-1.32,0.623c-0.466,0-0.854-0.232-0.854-0.854c0-0.466,0.311-1.164,1.086-2.099
	C233.607,20.737,235.548,18.252,237.182,16.155 M242.462,26.252c-3.105,0-6.756,0.233-6.756,2.253c0,0.932,0.62,1.476,1.708,1.476
	C239.589,29.98,241.842,28.582,242.462,26.252 M239.822,9.165c0,0.854,0.31,1.553,0.776,2.331c1.01-1.556,1.941-3.107,2.019-4.195
	c0-0.543-0.155-0.854-0.543-0.854C241.143,6.447,239.822,7.844,239.822,9.165"/>
</svg>
