<?xml version="1.0" encoding="utf-8"?>
<!-- Generator: Adobe Illustrator 15.0.0, SVG Export Plug-In . SVG Version: 6.00 Build 0)  -->
<!DOCTYPE svg PUBLIC "-//W3C//DTD SVG 1.1//EN" "http://www.w3.org/Graphics/SVG/1.1/DTD/svg11.dtd">
<svg version="1.1" id="Layer_1" xmlns="http://www.w3.org/2000/svg" xmlns:xlink="http://www.w3.org/1999/xlink" x="0px" y="0px"
	 width="270px" height="80px" viewBox="0 0 270 80" enable-background="new 0 0 270 80" xml:space="preserve">
<path fill="#FFFFFF" d="M37.962,64.467c0-2.874-2.253-4.271-5.358-4.66l-0.234,0.699C28.721,71.146,21.651,74.33,16.756,74.33
	c-3.883,0-6.756-2.406-6.756-5.281c0-5.98,9.787-10.098,17.166-11.572L43.398,10.33h-0.776c-6.913,0-13.67,3.262-16.855,9.631
	c-1.241,2.485-2.097,5.28-2.097,8.389c0,4.736,3.264,8,6.292,8c1.088,0,1.631,0.467,1.631,1.164c0,0.855-1.631,2.642-5.438,2.642
	c-4.504,0-7.844-4.116-7.844-9.321c0-5.125,2.563-10.797,6.291-14.988C30.429,9.32,40.292,5.67,49.147,5.67
	c0.854,0,1.476,0.621,1.476,1.553c0,0.234-0.077,0.466-0.155,0.776L33.536,56.932c5.515,0.312,8.62,2.486,8.62,5.359
	c0,1.166-1.242,4.661-3.262,4.661c-0.543,0-1.088-0.312-1.088-1.011c0-0.078,0.078-0.155,0.078-0.312
	C37.962,65.242,37.962,64.854,37.962,64.467 M24.448,65.477l1.785-5.203c-4.97,1.164-9.553,3.959-9.553,7.455
	c0,1.555,1.32,2.642,2.562,2.642C21.574,70.369,23.67,67.807,24.448,65.477 M66,45.748c0.465,0,0.854,0.232,0.854,0.775
	c0,0.545-0.312,1.244-1.086,2.174c-3.885,4.506-9.399,7.613-14.604,7.613c-5.048,0-8.855-3.341-8.855-8.234
	c0-7.066,5.827-15.067,14.448-15.067c3.883,0,5.748,2.329,5.748,4.737c0,4.195-5.825,9.477-11.264,11.964
	c-0.311,0.155-0.621,0.231-0.854,0.231c-0.621,0-1.088-0.39-1.088-0.933c0-0.466,0.312-1.01,1.088-1.631
	c4.893-3.885,6.524-7.379,6.524-9.476c0-1.478-0.7-2.175-1.788-2.175c-3.339,0-7.145,5.98-7.145,11.262
	c0,3.571,2.329,5.515,5.67,5.515c3.263,0,7.38-1.863,11.028-6.138C64.99,45.98,65.534,45.748,66,45.748 M69.57,45.98
	c0.232,4.582,1.165,6.213,2.33,6.213c1.786,0,4.427-2.483,7.301-5.826c0.389-0.387,0.854-0.619,1.32-0.619
	c0.544,0,0.932,0.232,0.932,0.854c0,0.467-0.388,1.166-1.164,2.097c-4.66,5.516-8.079,7.612-10.719,7.612
	c-3.806,0-5.515-4.582-5.515-9.787c0-18.95,12.737-40.854,17.397-40.854c1.087,0,1.787,1.164,1.787,3.729
	C83.241,18.873,76.097,37.204,69.57,45.98 M69.57,41.709c5.437-9.787,8-24.545,8-25.789c0-1.241-0.154-1.785-0.466-1.785
	c-1.476,0-5.438,11.885-6.99,21.67C69.804,37.903,69.57,40,69.57,41.709 M84.095,45.98c0.231,4.582,1.164,6.213,2.329,6.213
	c1.786,0,4.428-2.483,7.301-5.826c0.388-0.387,0.855-0.619,1.321-0.619c0.543,0,0.933,0.232,0.933,0.854
	c0,0.467-0.39,1.166-1.166,2.097c-4.661,5.516-8.078,7.612-10.718,7.612c-3.807,0-5.516-4.582-5.516-9.787
	c0-18.95,12.738-40.854,17.399-40.854c1.087,0,1.785,1.164,1.785,3.729C97.764,18.873,90.619,37.204,84.095,45.98 M84.095,41.709
	c5.435-9.787,8.001-24.545,8.001-25.789c0-1.241-0.158-1.785-0.469-1.785c-1.476,0-5.437,11.885-6.989,21.67
	C84.326,37.903,84.095,40,84.095,41.709 M115.314,45.748c0.467,0,0.854,0.232,0.854,0.775c0,0.545-0.31,1.244-1.088,2.174
	c-3.883,4.506-9.397,7.613-14.601,7.613c-5.049,0-8.855-3.341-8.855-8.234c0-7.066,5.825-15.067,14.447-15.067
	c3.884,0,5.747,2.329,5.747,4.737c0,4.195-5.825,9.477-11.261,11.964c-0.312,0.155-0.623,0.231-0.856,0.231
	c-0.622,0-1.085-0.39-1.085-0.933c0-0.466,0.309-1.01,1.085-1.631c4.895-3.885,6.524-7.379,6.524-9.476
	c0-1.478-0.698-2.175-1.785-2.175c-3.34,0-7.146,5.98-7.146,11.262c0,3.571,2.332,5.515,5.671,5.515
	c3.261,0,7.379-1.863,11.028-6.138C114.307,45.98,114.85,45.748,115.314,45.748 M130.847,24.621c0,6.602,5.67,4.737,5.67,6.758
	c0,0.775-1.088,1.63-4.194,1.63c-4.194,0-8.078-2.873-8.078-8.388c0-11.418,12.97-18.951,25.634-18.951
	c10.717,0,17.316,5.126,17.316,12.35c0,7.067-6.91,13.902-12.893,17.396c2.33,0.545,8.467,2.564,8.467,9.166
	c0,10.408-14.914,17.243-25.089,17.243c-10.251,0-14.99-3.96-14.99-8.31c0-5.517,7.068-8.002,12.352-8.235l10.018-28.893
	c0.777-2.33,3.496-3.961,5.283-3.961c1.008,0,1.629,0.467,1.629,1.477c0,0.311,0,0.621-0.154,1.01l-10.797,31.224
	c3.105,1.166,4.271,3.418,4.271,5.204c0,1.787-1.166,3.028-2.408,3.028c-1.941,0-0.311-2.485-3.186-4.35l-0.309,0.933
	c-0.779,2.407-3.65,3.961-5.362,3.961c-0.931,0-1.63-0.465-1.63-1.396c0-0.312,0.078-0.701,0.232-1.088l1.476-4.271
	c-1.785,0.154-5.048,1.475-5.048,4.582c0,3.494,3.34,5.824,11.264,5.824c10.562,0,15.768-8.232,15.768-13.748
	c0-4.97-3.652-7.301-6.291-7.301c-0.311,0-0.775,0.078-1.088,0.078c-0.932,0-1.477-0.466-1.477-1.01c0-0.465,0.389-0.932,1.244-1.32
	c4.893-2.176,11.961-9.01,11.961-17.01c0-6.603-6.291-10.02-11.342-10.02C141.721,8.232,130.847,14.213,130.847,24.621
	 M181.715,56.311c-2.33,0-3.492-1.242-3.727-3.106c-1.787,2.021-3.961,3.106-6.137,3.106c-3.572,0-6.602-3.028-6.602-7.065
	c0-7.068,7.223-16.235,16.389-16.235c3.885,0,6.91,1.554,6.91,4.661c0,3.884-3.416,4.66-4.658,4.66c-1.088,0-2.799-0.312-2.799-1.32
	c0-1.088,2.41-0.467,2.41-2.952c0-1.554-1.553-2.097-3.105-2.097c-5.596,0-9.631,7.767-9.631,12.583c0,2.175,0.854,4.35,2.873,4.35
	c1.629,0,4.271-2.33,5.592-5.746c0.855-2.332,3.264-3.885,4.895-3.885c0.854,0,1.398,0.389,1.398,1.241
	c0,0.312-0.08,0.699-0.234,1.166c-0.311,1.011-1.941,5.67-1.941,6.369c0,0.39,0.154,0.699,0.621,0.699
	c1.166,0,4.193-2.021,7.924-6.371c0.311-0.388,0.854-0.619,1.318-0.619c0.467,0,0.854,0.231,0.854,0.774
	c0,0.545-0.311,1.244-1.086,2.175C188.707,53.748,184.436,56.311,181.715,56.311 M206.182,56.311c-2.33,0-3.496-1.242-3.73-3.106
	c-1.785,2.021-3.959,3.106-6.135,3.106c-3.572,0-6.604-3.028-6.604-7.065c0-7.068,7.227-16.235,16.391-16.235
	c3.883,0,6.912,1.554,6.912,4.661c0,3.884-3.418,4.66-4.658,4.66c-1.09,0-2.799-0.312-2.799-1.32c0-1.088,2.408-0.467,2.408-2.952
	c0-1.554-1.553-2.097-3.105-2.097c-5.592,0-9.633,7.767-9.633,12.583c0,2.175,0.855,4.35,2.873,4.35c1.633,0,4.273-2.33,5.594-5.746
	c0.854-2.332,3.264-3.885,4.893-3.885c0.855,0,1.398,0.389,1.398,1.241c0,0.312-0.076,0.699-0.232,1.166
	c-0.311,1.011-1.941,5.67-1.941,6.369c0,0.39,0.156,0.699,0.623,0.699c1.164,0,4.191-2.021,7.922-6.371
	c0.311-0.388,0.854-0.619,1.318-0.619c0.469,0,0.855,0.231,0.855,0.774c0,0.545-0.312,1.244-1.088,2.175
	C213.17,53.748,208.898,56.311,206.182,56.311 M220.08,41.631c-2.174-1.396-3.104-2.951-3.104-5.359
	c0-4.816,4.193-8.155,7.299-8.155c2.176,0,3.42,1.632,3.42,3.495c0,2.175-0.855,4.193-2.178,6.215
	c2.1,0.543,4.584,0.466,6.291,0.543c1.166,0.078,2.02,0.854,2.02,2.252c0,0.545-0.23,1.164-0.697,1.555
	c-1.088,1.087-5.514,5.28-5.514,8.543c0,1.242,0.543,1.786,1.396,1.786c1.941,0,5.592-2.484,8.699-6.138
	c0.311-0.388,0.855-0.619,1.32-0.619c0.467,0,0.855,0.231,0.855,0.774c0,0.545-0.311,1.244-1.088,2.175
	c-4.814,5.671-8.699,7.612-11.496,7.612c-3.262,0-5.049-2.641-5.049-4.971c0-1.863,1.086-4.584,4.43-7.533
	c-1.557-0.156-3.107-0.545-4.506-1.089c-1.633,2.175-3.418,4.429-4.738,5.979c-0.389,0.469-0.934,0.623-1.32,0.623
	c-0.467,0-0.854-0.232-0.854-0.854c0-0.466,0.311-1.164,1.088-2.099C217.441,45.127,218.838,43.262,220.08,41.631 M223.188,36.659
	c0.545-1.009,1.01-2.329,1.01-3.65c0-1.476-0.389-2.019-0.932-2.019c-0.854,0-1.555,1.243-1.555,2.406
	C221.711,34.718,222.488,36.039,223.188,36.659 M242.682,40.155c-0.934-1.397-1.635-2.795-1.635-4.427
	c0-4.583,5.363-8.544,8.623-8.544c1.4,0,2.408,0.7,2.408,2.407c0,2.407-2.562,5.824-4.428,8.154c2.254,2.797,5.283,6.06,5.283,9.633
	c4.113,0.544,7.066,2.252,7.066,5.126c0,1.555-1.396,4.893-2.875,4.893c-0.309,0-0.543-0.152-0.543-0.541
	c0-0.545,0.465-1.013,0.465-2.021c0-1.941-1.707-3.417-4.812-4.115c-1.633,4.193-5.902,5.592-9.553,5.592
	c-1.787,0-5.518-0.775-5.518-3.184c0-2.33,3.652-4.816,10.643-5.671c-0.699-1.864-2.252-3.495-3.65-5.28l-5.359,6.521
	c-0.311,0.391-0.854,0.623-1.32,0.623s-0.854-0.232-0.854-0.854c0-0.466,0.311-1.164,1.086-2.099
	C239.107,44.736,241.047,42.252,242.682,40.155 M247.961,50.252c-3.104,0-6.756,0.232-6.756,2.253c0,0.933,0.621,1.476,1.709,1.476
	C245.088,53.98,247.342,52.582,247.961,50.252 M245.322,33.165c0,0.854,0.309,1.553,0.775,2.331c1.01-1.556,1.941-3.107,2.02-4.195
	c0-0.543-0.156-0.854-0.543-0.854C246.643,30.447,245.322,31.844,245.322,33.165"/>
</svg>
