<?xml version="1.0" encoding="utf-8"?>
<!-- Generator: Adobe Illustrator 15.0.0, SVG Export Plug-In . SVG Version: 6.00 Build 0)  -->
<!DOCTYPE svg PUBLIC "-//W3C//DTD SVG 1.1//EN" "http://www.w3.org/Graphics/SVG/1.1/DTD/svg11.dtd">
<svg version="1.1" id="Layer_1" xmlns="http://www.w3.org/2000/svg" xmlns:xlink="http://www.w3.org/1999/xlink" x="0px" y="0px"
	 width="40px" height="40px" viewBox="0 0 40 40" enable-background="new 0 0 40 40" xml:space="preserve">
<path fill="#303832" d="M20.001,2.499C10.336,2.499,2.5,10.335,2.5,20c0,9.667,7.836,17.501,17.501,17.501S37.5,29.667,37.5,20
	C37.5,10.335,29.666,2.499,20.001,2.499z M30.138,15.69c-1.167,6.586-7.699,12.162-9.663,13.437
	c-1.965,1.271-3.757-0.514-4.406-1.859c-0.744-1.539-2.976-9.877-3.559-10.568c-0.584-0.692-2.337,0.69-2.337,0.69l-0.85-1.116
	c0,0,3.558-4.246,6.265-4.781c2.871-0.56,2.867,4.409,3.559,7.169c0.668,2.671,1.116,4.197,1.697,4.197
	c0.586,0,1.7-1.487,2.922-3.771c1.223-2.283-0.053-4.302-2.443-2.867C22.279,10.487,31.308,9.108,30.138,15.69z"/>
</svg>
